<?xml version="1.0" encoding="UTF-8" standalone="no"?>
<svg
   width="506.69452"
   height="506.69452"
   viewBox="0 0 506.69452 506.69452"
   fill="none"
   version="1.1"
   id="svg2"
   xmlns="http://www.w3.org/2000/svg"
   xmlns:svg="http://www.w3.org/2000/svg">
  <defs
     id="defs2" />
  <path
     fill-rule="evenodd"
     clip-rule="evenodd"
     d="M 190.01045,1.1901856e-8 H 443.35772 C 478.19297,1.1901856e-8 506.69454,28.501568 506.69454,63.336817 V 316.68408 c 0,34.83525 -28.50157,63.33682 -63.33682,63.33682 H 190.01045 c -34.83525,0 -63.33682,-28.50157 -63.33682,-63.33682 V 63.336817 C 126.67363,28.501568 155.1752,1.1901854e-8 190.01045,1.1901856e-8 Z M 190.01045,316.68408 H 443.35772 V 63.336817 H 190.01045 Z"
     fill="#8287EB"
     id="path1"
     style="fill:#8287eb;fill-opacity:1;stroke-width:31.6684" />
  <path
     d="M 63.336817,126.67363 C 28.501568,126.67363 1.1901854e-8,155.1752 1.1901854e-8,190.01045 V 443.35772 C 1.1901854e-8,478.19297 28.501568,506.69454 63.336817,506.69454 H 316.68408 c 34.83525,0 63.33682,-28.50157 63.33682,-63.33682 H 63.336817 Z"
     fill="#8287EB"
     id="path2"
     style="fill:#8287eb;fill-opacity:1;stroke-width:31.6684" />
</svg>
