<?xml version="1.0" encoding="UTF-8" standalone="no"?>
<svg
	width="507.44122"
	height="507.44122"
	viewBox="0 0 24 24"
	fill="none"
	xmlns="http://www.w3.org/2000/svg">
	<path
		fill-rule="evenodd"
		clip-rule="evenodd"
		d="M4 2C2.89543 2 2 2.89543 2 4V20C2 21.1046 2.89543 22 4 22H20C21.1046 22 22 21.1046 22 20V4C22 2.89543 21.1046 2 20 2H4ZM7 5.5C6.17157 5.5 5.5 6.17157 5.5 7C5.5 7.82843 6.17157 8.5 7 8.5C7.82843 8.5 8.5 7.82843 8.5 7C8.5 6.17157 7.82843 5.5 7 5.5ZM17 5.5C16.1716 5.5 15.5 6.17157 15.5 7C15.5 7.82843 16.1716 8.5 17 8.5C17.8284 8.5 18.5 7.82843 18.5 7C18.5 6.17157 17.8284 5.5 17 5.5ZM12 10.5C11.1716 10.5 10.5 11.1716 10.5 12C10.5 12.8284 11.1716 13.5 12 13.5C12.8284 13.5 13.5 12.8284 13.5 12C13.5 11.1716 12.8284 10.5 12 10.5ZM7 15.5C6.17157 15.5 5.5 16.1716 5.5 17C5.5 17.8284 6.17157 18.5 7 18.5C7.82843 18.5 8.5 17.8284 8.5 17C8.5 16.1716 7.82843 15.5 7 15.5ZM17 15.5C16.1716 15.5 15.5 16.1716 15.5 17C15.5 17.8284 16.1716 18.5 17 18.5C17.8284 18.5 18.5 17.8284 18.5 17C18.5 16.1716 17.8284 15.5 17 15.5Z"
		fill="#90ee90"
	/>
</svg>
