<?xml version="1.0" encoding="UTF-8" standalone="no"?>
<svg
   xml:space="preserve"
   width="53.60479"
   height="56.772491"
   viewBox="0 0 187.61676 198.70372"
   version="1.1"
   id="svg1"
   xmlns="http://www.w3.org/2000/svg"
   xmlns:svg="http://www.w3.org/2000/svg"><defs
     id="defs1" /><path
     id="path6"
     style="fill:#ff6d5a;stroke-width:0.900639"
     d="M 68.939524,-6.9427491e-8 C 65.891295,-6.9427491e-8 63.42079,2.4705037 63.42079,5.5187314 V 16.556195 c 0,3.048227 2.470505,5.518731 5.518734,5.518731 h 53.452296 c 8.12907,0 14.72316,6.594083 14.72316,14.723152 v 25.760614 c 0,12.409096 4.72928,23.709385 12.47841,32.21057 2.32514,2.55054 2.32514,6.614668 0,9.165198 -7.74913,8.50119 -12.47841,19.81128 -12.47841,32.22038 v 25.7508 c 0,8.12907 -6.59409,14.72315 -14.72316,14.72315 H 68.939524 c -3.048229,0 -5.518734,2.47051 -5.518734,5.51876 v 11.03744 c 0,3.04823 2.470505,5.51873 5.518734,5.51873 h 53.452296 c 20.32291,0 36.79808,-16.47518 36.79808,-36.79808 v -25.7508 c 0,-14.226 11.53462,-25.76062 25.76062,-25.76061 a 2.6600151,2.6600151 0 0 0 2.66623,-2.66625 V 90.975747 a 2.6600151,2.6600151 0 0 0 -2.66623,-2.666243 c -14.226,0 -25.76062,-11.52483 -25.76062,-25.750812 V 36.798078 C 159.1899,16.475178 142.71473,-6.9427494e-8 122.39182,-6.9427494e-8 Z M 51.079774,117.05706 c -3.048228,0 -5.51873,2.47049 -5.51873,5.51873 v 11.03746 c 0,3.04822 2.470502,5.51873 5.51873,5.51873 h 67.155996 c 3.04824,0 5.51874,-2.47051 5.51874,-5.51873 v -11.03746 c 0,-3.04824 -2.4705,-5.51873 -5.51874,-5.51873 z m -34.38801,-5.83833 C 7.4562293,111.21873 2.6593018e-7,118.58799 2.6593018e-7,127.8235 c 0,9.23554 7.45622903406982,16.70144 16.69176373406982,16.70144 9.235537,0 16.70143,-7.4659 16.70143,-16.70144 0,-9.23551 -7.554696,-16.60477 -16.70143,-16.60477 z M 51.265859,59.794425 c -3.048228,0 -5.518731,2.470504 -5.518731,5.518732 V 76.35062 c 0,3.048227 2.470503,5.51873 5.518731,5.51873 h 67.156001 c 3.04823,0 5.51873,-2.470503 5.51873,-5.51873 V 65.313157 c 0,-3.048228 -2.4705,-5.518732 -5.51873,-5.518732 z m -34.38801,-5.838329 c -9.2355347,0 -16.69176473,7.369257 -16.69176473,16.604783 0,9.235528 7.45623003,16.701439 16.69176473,16.701439 9.235537,0 16.70143,-7.465911 16.70143,-16.701439 0,-9.235526 -7.554696,-16.604783 -16.70143,-16.604783 z" /></svg>
