<?xml version="1.0" encoding="UTF-8" standalone="no"?>
<svg
   width="507.44122"
   height="507.31454"
   viewBox="0 0 507.44122 507.31454"
   fill="none"
   version="1.1"
   id="svg1"
   xml:space="preserve"
   xmlns="http://www.w3.org/2000/svg"
   xmlns:svg="http://www.w3.org/2000/svg"><defs
     id="defs1" /><g
     id="g18"
     transform="matrix(1.0592121,0,0,1.0422817,-17.816279,-11.62592)"><path
       id="path17"
       style="font-variation-settings:normal;opacity:1;vector-effect:none;fill:#90ee90;fill-opacity:1;stroke:none;stroke-width:1.0519;stroke-linecap:butt;stroke-linejoin:miter;stroke-miterlimit:4;stroke-dasharray:none;stroke-dashoffset:0;stroke-opacity:1;-inkscape-stroke:none;stop-color:#000000;stop-opacity:1"
       d="M 94.853516,11.154297 A 77.283119,79.446953 0 0 0 17.570312,90.601562 77.283119,79.446953 0 0 0 94.853516,170.04883 77.283119,79.446953 0 0 0 172.13672,90.601562 77.283119,79.446953 0 0 0 94.853516,11.154297 Z m 0,40.587891 A 40.04303,38.858635 0 0 1 134.89648,90.601562 40.04303,38.858635 0 0 1 94.853516,129.46094 40.04303,38.858635 0 0 1 54.810547,90.601562 40.04303,38.858635 0 0 1 94.853516,51.742188 Z M 391.09765,180.30273 c -24.8051,0 -44.91405,20.31211 -44.91405,45.36915 v 7.56249 h -0.0137 v 45.36914 h 0.0137 v 7.56251 c 0,25.05703 20.10895,45.36914 44.91405,45.36914 h 59.88282 c 24.80511,0 44.91407,-20.31211 44.91407,-45.36914 v -60.49414 c 0,-25.05704 -20.10896,-45.36915 -44.91407,-45.36915 z m 29.9336,36.75781 a 40.04303,38.858635 0 0 1 40.04297,38.85743 40.04303,38.858635 0 0 1 -40.04297,38.85938 40.04303,38.858635 0 0 1 -40.04297,-38.85938 40.04303,38.858635 0 0 1 40.04297,-38.85743 z M 166.5332,66.880859 V 112.2461 l 0.002,0.004 h 33.91602 c 16.53644,0 29.94336,13.54169 29.94336,30.2461 v 52.92968 c 0,23.83398 9.92506,45.32947 25.82617,60.49414 -15.90111,15.16468 -25.82617,36.6582 -25.82617,60.49218 v 52.92969 c 0,16.70439 -13.40692,30.2461 -29.94336,30.2461 h -33.91993 v -7.56055 c 0,-25.05706 -20.10892,-45.36914 -44.91405,-45.36914 H 61.734375 c -24.804854,4e-5 -44.914062,20.3122 -44.914062,45.36926 v 60.49219 c 0,25.05707 20.109208,45.36914 44.914062,45.36914 h 59.882815 c 24.80514,0 44.91406,-20.31207 44.91406,-45.36914 v -7.5625 h 33.91992 c 41.34158,0 74.85547,-33.85376 74.85547,-75.61524 v -52.92968 c 0,-20.88026 16.75741,-37.8086 37.42773,-37.8086 h 33.43556 v -45.36914 h -33.43556 c -20.67032,0 -37.42773,-16.92833 -37.42773,-37.80859 v -52.9299 c 0,-41.76128 -33.51389,-75.615241 -74.85547,-75.615241 z M 69.21875,392.02734 h 44.91406 c 4.13388,0 7.48438,3.38468 7.48438,7.56055 v 45.36914 c 0,4.17587 -3.3505,7.5625 -7.48438,7.5625 H 69.21875 c -4.134158,0 -7.484375,-3.38663 -7.484375,-7.5625 v -45.36914 c 0,-4.17587 3.350217,-7.56055 7.484375,-7.56055 z" /></g></svg>
